<svg width="18.000000" height="16.000122" viewBox="0 0 18 16.0001" fill="none" xmlns="http://www.w3.org/2000/svg" xmlns:xlink="http://www.w3.org/1999/xlink">
	<desc>
			Created with Pixso.
	</desc>
	<defs/>
	<path d="M17.89 3.05C17.79 2.91 17.62 2.82 17.44 2.81L6.28 2.36C5.96 2.35 5.69 2.58 5.67 2.88C5.66 3.18 5.91 3.44 6.23 3.45L16.64 3.87L14.59 9.9L5.48 9.9L3.84 1.44C3.8 1.26 3.67 1.1 3.48 1.03L0.78 0.03C0.49 -0.08 0.15 0.06 0.04 0.34C-0.08 0.62 0.06 0.94 0.36 1.05L2.76 1.94L4.43 10.55C4.48 10.81 4.72 11 5 11L5.28 11L4.64 12.66C4.59 12.8 4.61 12.95 4.7 13.07C4.79 13.2 4.94 13.27 5.1 13.27L5.54 13.27C5.27 13.56 5.1 13.94 5.1 14.36C5.1 15.26 5.87 16 6.83 16C7.78 16 8.56 15.26 8.56 14.36C8.56 13.94 8.39 13.56 8.12 13.27L11.89 13.27C11.62 13.56 11.45 13.94 11.45 14.36C11.45 15.26 12.23 16 13.18 16C14.14 16 14.91 15.26 14.91 14.36C14.91 13.94 14.75 13.56 14.47 13.27L15.01 13.27C15.28 13.27 15.49 13.06 15.49 12.81C15.49 12.56 15.28 12.36 15.01 12.36L5.78 12.36L6.3 11L15.01 11C15.26 11 15.48 10.84 15.56 10.62L17.97 3.53C18.02 3.36 17.99 3.19 17.89 3.05ZM6.83 15.09C6.4 15.09 6.06 14.76 6.06 14.36C6.06 13.96 6.4 13.63 6.83 13.63C7.25 13.63 7.6 13.96 7.6 14.36C7.6 14.76 7.25 15.09 6.83 15.09ZM13.18 15.09C12.76 15.09 12.41 14.76 12.41 14.36C12.41 13.96 12.76 13.63 13.18 13.63C13.61 13.63 13.95 13.96 13.95 14.36C13.95 14.76 13.61 15.09 13.18 15.09Z" fill="#1B1A17" fill-opacity="1.000000" fill-rule="nonzero"/>
</svg>
