<svg width="23.000000" height="22.775635" viewBox="0 0 23 22.7756" fill="none" xmlns="http://www.w3.org/2000/svg" xmlns:xlink="http://www.w3.org/1999/xlink">
	<desc>
			Created with Pixso.
	</desc>
	<defs/>
	<path d="M6.65 0C2.98 0 0 2.96 0 6.6L0 16.16C0 19.81 2.98 22.77 6.65 22.77L16.34 22.77C20.01 22.77 23 19.81 23 16.16L23 6.6C23 2.96 20.01 0 16.34 0L6.65 0ZM6.65 1.95L16.34 1.95C18.95 1.95 21.02 4.01 21.02 6.6L21.02 16.16C21.02 18.76 18.95 20.81 16.34 20.81L6.65 20.81C4.04 20.81 1.97 18.76 1.97 16.16L1.97 6.6C1.97 4.01 4.04 1.95 6.65 1.95ZM17.67 3.91C16.91 3.91 16.29 4.52 16.29 5.28C16.29 6.04 16.91 6.65 17.67 6.65C18.43 6.65 19.05 6.04 19.05 5.28C19.05 4.52 18.43 3.91 17.67 3.91ZM11.5 5.52C8.24 5.52 5.59 8.16 5.59 11.38C5.59 14.61 8.24 17.25 11.5 17.25C14.75 17.25 17.4 14.61 17.4 11.38C17.4 8.16 14.75 5.52 11.5 5.52ZM11.5 7.48C13.68 7.48 15.43 9.21 15.43 11.38C15.43 13.55 13.68 15.29 11.5 15.29C9.31 15.29 7.56 13.55 7.56 11.38C7.56 9.21 9.31 7.48 11.5 7.48Z" fill="#5C5C50" fill-opacity="1.000000" fill-rule="nonzero"/>
</svg>
