<svg width="19.750244" height="16.858887" viewBox="0 0 19.7502 16.8589" fill="none" xmlns="http://www.w3.org/2000/svg" xmlns:xlink="http://www.w3.org/1999/xlink">
	<desc>
			Created with Pixso.
	</desc>
	<defs/>
	<path d="M19.34 5.14C19.06 2.38 16.9 0.37 14.2 0.37C12.4 0.37 10.75 1.25 9.82 2.66C8.9 1.23 7.32 0.37 5.54 0.37C2.84 0.37 0.68 2.38 0.4 5.14C0.38 5.26 0.29 5.91 0.56 6.95C0.96 8.47 1.87 9.84 3.19 10.93L9.81 16.37L16.55 10.93C17.87 9.84 18.78 8.47 19.18 6.95C19.45 5.91 19.36 5.26 19.34 5.14ZM18.47 6.8C18.11 8.18 17.27 9.44 16.06 10.44L9.82 15.48L3.69 10.44C2.47 9.44 1.63 8.18 1.27 6.8C1.02 5.81 1.12 5.25 1.12 5.25L1.13 5.21C1.37 2.79 3.22 1.03 5.54 1.03C7.26 1.03 8.76 1.99 9.48 3.52L9.82 4.24L10.15 3.52C10.86 2.01 12.44 1.03 14.2 1.03C16.52 1.03 18.37 2.79 18.62 5.24C18.62 5.25 18.72 5.81 18.47 6.8Z" fill="#1B1A17" fill-opacity="1.000000" fill-rule="nonzero"/>
	<path d="M14.2 0.37C12.4 0.37 10.75 1.25 9.82 2.66C8.9 1.23 7.32 0.37 5.54 0.37C2.84 0.37 0.68 2.38 0.4 5.14C0.38 5.26 0.29 5.91 0.56 6.95C0.96 8.47 1.87 9.84 3.19 10.93L9.81 16.37L16.55 10.93C17.87 9.84 18.78 8.47 19.18 6.95C19.45 5.91 19.36 5.26 19.34 5.14C19.06 2.38 16.9 0.37 14.2 0.37ZM16.06 10.44L9.82 15.48L3.69 10.44C2.47 9.44 1.63 8.18 1.27 6.8C1.02 5.81 1.12 5.25 1.12 5.25L1.13 5.21C1.37 2.79 3.22 1.03 5.54 1.03C7.26 1.03 8.76 1.99 9.48 3.52L9.82 4.24L10.15 3.52C10.86 2.01 12.44 1.03 14.2 1.03C16.52 1.03 18.37 2.79 18.62 5.24C18.62 5.25 18.72 5.81 18.47 6.8C18.11 8.18 17.27 9.44 16.06 10.44Z" stroke="#1B1A17" stroke-opacity="1.000000" stroke-width="0.750000"/>
</svg>
