<svg width="103.684082" height="26.000122" viewBox="0 0 103.684 26.0001" fill="none" xmlns="http://www.w3.org/2000/svg" xmlns:xlink="http://www.w3.org/1999/xlink">
	<desc>
			Created with Pixso.
	</desc>
	<defs>
		<linearGradient x1="3.756004" y1="11.723124" x2="23.964611" y2="12.991825" id="paint_linear_0_497_0" gradientUnits="userSpaceOnUse">
			<stop offset="0.288448" stop-color="#555248"/>
			<stop offset="0.780176" stop-color="#1B1A17" stop-opacity="0.000000"/>
		</linearGradient>
	</defs>
	<path d="M31.43 9.57Q30.92 9.33 30.13 9.33Q29.3 9.33 28.61 9.65Q28.38 9.75 28.16 9.9Q27.99 10.01 27.84 10.13Q27.2 10.65 26.81 11.47Q26.31 12.48 26.31 13.82Q26.31 15.19 26.79 16.16Q27.14 16.88 27.7 17.35Q27.9 17.51 28.12 17.65Q28.17 17.68 28.23 17.71Q29.05 18.16 30.12 18.16Q30.9 18.16 31.4 17.93Q31.89 17.7 32.32 17.39Q32.33 17.39 32.34 17.38Q32.55 17.25 32.66 17.31Q32.69 17.32 32.72 17.35Q32.83 17.48 32.88 18L33.16 18Q33.13 17.54 33.12 16.87Q33.11 16.21 33.11 15.12L32.83 15.12Q32.75 15.85 32.65 16.25Q32.62 16.36 32.58 16.45Q32.48 16.75 32.28 17.01Q32.17 17.16 32.04 17.29Q31.76 17.56 31.35 17.71Q30.77 17.92 30.23 17.92Q29.91 17.92 29.61 17.84Q29.37 17.77 29.15 17.65Q28.66 17.38 28.29 16.86Q27.92 16.33 27.72 15.55Q27.52 14.78 27.52 13.77Q27.52 12.8 27.7 12.02Q27.89 11.24 28.23 10.69Q28.57 10.13 29.05 9.84Q29.21 9.74 29.39 9.67Q29.72 9.55 30.11 9.55Q30.55 9.55 30.97 9.66Q31.13 9.71 31.29 9.77Q31.55 9.87 31.76 10.02Q32.02 10.21 32.23 10.48Q32.4 10.7 32.5 10.92Q32.6 11.13 32.68 11.44Q32.75 11.74 32.83 12.26L33.11 12.26Q33.11 11.22 33.12 10.58Q33.13 9.94 33.16 9.5L32.88 9.5Q32.83 10.01 32.7 10.15Q32.67 10.19 32.63 10.2Q32.52 10.24 32.34 10.11Q31.94 9.8 31.43 9.57ZM41.95 9.78Q41.13 9.33 40.07 9.33Q39.24 9.33 38.55 9.65Q38.31 9.75 38.09 9.9Q37.93 10.01 37.78 10.13Q37.14 10.65 36.74 11.47Q36.25 12.48 36.25 13.82Q36.25 15.19 36.73 16.16Q37.08 16.88 37.64 17.35Q37.83 17.51 38.06 17.65Q38.11 17.68 38.17 17.71Q38.99 18.16 40.06 18.16Q40.87 18.16 41.55 17.86Q41.8 17.75 42.03 17.6Q42.23 17.47 42.41 17.32Q43.01 16.81 43.38 16.03Q43.87 15.02 43.87 13.67Q43.87 12.29 43.4 11.33Q43.05 10.63 42.51 10.17Q42.3 9.99 42.06 9.85Q42.01 9.81 41.95 9.78ZM62.49 9.78Q61.68 9.33 60.61 9.33Q59.78 9.33 59.09 9.65Q58.86 9.75 58.64 9.9Q58.47 10.01 58.32 10.13Q57.68 10.65 57.29 11.47Q56.79 12.48 56.79 13.82Q56.79 15.19 57.27 16.16Q57.62 16.88 58.18 17.35Q58.38 17.51 58.6 17.65Q58.65 17.68 58.71 17.71Q59.35 18.06 60.14 18.14Q59.83 18.27 59.53 18.41Q59.22 18.56 58.79 18.68Q58.31 18.58 57.89 18.58Q57.33 18.58 57.25 18.77Q57.24 18.8 57.24 18.84Q57.24 18.87 57.25 18.9Q57.28 18.97 57.4 19.01Q57.55 19.08 57.79 19.08Q58.03 19.08 58.29 19.03Q58.56 18.98 58.79 18.89Q58.85 18.91 58.92 18.93Q58.99 18.96 59.07 18.98Q59.84 19.23 60.48 19.53Q61.12 19.83 61.71 20.04Q61.97 20.13 62.23 20.18Q62.58 20.25 62.94 20.25Q63.55 20.25 63.94 20.08Q64.33 19.91 64.56 19.71Q64.8 19.5 64.98 19.16Q65.17 18.84 65.31 18.34L65.14 18.27Q64.95 18.64 64.66 18.88Q64.53 18.99 64.37 19.06Q63.88 19.32 63.01 19.32Q62.54 19.32 61.88 19.22Q61.22 19.12 60.52 18.99Q59.81 18.86 59.21 18.74Q59.57 18.63 59.83 18.51Q60.09 18.39 60.36 18.29Q60.62 18.19 60.98 18.15L60.98 18.14Q61.58 18.09 62.1 17.86Q62.35 17.75 62.58 17.6Q62.77 17.47 62.95 17.32Q63.55 16.81 63.93 16.03Q64.41 15.02 64.41 13.67Q64.41 12.29 63.94 11.33Q63.6 10.63 63.05 10.17Q62.84 9.99 62.61 9.85Q62.55 9.81 62.49 9.78ZM89.49 9.5Q89.18 9.37 88.58 9.37Q88.12 9.37 87.7 9.5Q87.59 9.54 87.48 9.59Q87.22 9.7 87.02 9.87Q86.81 10.04 86.64 10.28Q86.33 10.74 86.33 11.44Q86.33 12.12 86.62 12.59Q86.91 13.06 87.41 13.42Q87.9 13.78 88.46 14.13Q89.03 14.47 89.45 14.79Q89.87 15.1 90.1 15.47Q90.13 15.52 90.16 15.56Q90.34 15.9 90.34 16.33Q90.34 16.89 90.11 17.25Q89.94 17.51 89.7 17.67Q89.61 17.72 89.52 17.76Q89.38 17.83 89.22 17.87Q89.01 17.92 88.77 17.92Q88.01 17.92 87.55 17.55Q87.55 17.55 87.54 17.54Q87.48 17.49 87.42 17.43Q87.05 17.08 86.86 16.54Q86.64 15.92 86.59 15.2L86.31 15.2Q86.31 16.04 86.31 16.59Q86.3 17.14 86.3 17.49Q86.29 17.83 86.27 18.08L86.54 18.08Q86.58 17.82 86.63 17.68Q86.67 17.6 86.73 17.57Q86.76 17.55 86.81 17.55Q86.95 17.55 87.22 17.72Q87.48 17.87 87.85 18.02Q88.22 18.16 88.86 18.16Q89.55 18.16 90.13 17.91Q90.48 17.76 90.74 17.52Q90.92 17.36 91.05 17.15Q91.4 16.65 91.4 15.88Q91.4 15.24 91.12 14.78Q90.84 14.32 90.35 13.95Q89.87 13.57 89.24 13.18Q88.7 12.85 88.24 12.55Q87.78 12.26 87.5 11.89Q87.47 11.85 87.44 11.8Q87.23 11.46 87.23 10.99Q87.23 10.58 87.41 10.27Q87.5 10.11 87.64 9.98Q87.76 9.87 87.89 9.79Q88.23 9.6 88.69 9.6Q89.34 9.6 89.75 9.91Q89.76 9.92 89.78 9.93Q89.86 10 89.94 10.08Q90.23 10.37 90.41 10.8Q90.5 11.02 90.56 11.24Q90.64 11.56 90.66 11.9L90.93 11.9Q90.93 11.14 90.94 10.68Q90.95 10.22 90.96 9.94Q90.98 9.65 91 9.45L90.72 9.45Q90.68 9.72 90.63 9.85Q90.6 9.93 90.54 9.96Q90.5 9.98 90.46 9.98Q90.37 9.98 90.28 9.94Q90.19 9.89 90.05 9.81Q89.81 9.64 89.49 9.5ZM54.13 9.74L54.13 9.5Q53.94 9.51 53.63 9.52Q53.33 9.53 53.01 9.53Q52.72 9.53 52.36 9.52Q52.01 9.51 51.79 9.5L51.79 9.74Q52.26 9.75 52.49 9.86Q52.62 9.92 52.7 10.01Q52.77 10.1 52.8 10.21Q52.88 10.45 52.88 10.89L52.88 16.03L48.65 9.5Q48.46 9.51 48.22 9.52Q47.97 9.53 47.71 9.53Q47.41 9.53 47.1 9.52Q46.8 9.51 46.6 9.5L46.6 9.74Q47 9.75 47.21 9.83Q47.32 9.87 47.39 9.94Q47.46 10.01 47.49 10.12Q47.57 10.33 47.57 10.77L47.57 16.6Q47.57 17.03 47.49 17.28Q47.45 17.44 47.35 17.53Q47.29 17.59 47.21 17.63Q47 17.73 46.6 17.75L46.6 18Q46.8 17.97 47.1 17.97Q47.41 17.96 47.71 17.96Q48.02 17.96 48.37 17.97Q48.72 17.97 48.94 18L48.94 17.75Q48.47 17.73 48.23 17.63Q48.12 17.58 48.04 17.5Q47.96 17.41 47.92 17.28Q47.84 17.03 47.84 16.6L47.84 10.27L52.88 18.05L53.16 18.05L53.16 10.89Q53.16 10.45 53.23 10.21Q53.28 10.06 53.37 9.96Q53.43 9.9 53.51 9.86Q53.72 9.75 54.13 9.74ZM74.52 9.74L74.52 9.5Q74.33 9.51 74.02 9.52Q73.71 9.53 73.4 9.53Q73.1 9.53 72.75 9.52Q72.4 9.51 72.18 9.5L72.18 9.74Q72.59 9.75 72.83 9.86Q72.95 9.92 73.04 10.01Q73.12 10.09 73.17 10.21Q73.27 10.45 73.27 10.89L73.27 14.63Q73.27 15.52 73.07 16.23Q72.9 16.84 72.52 17.22Q72.45 17.28 72.38 17.34Q71.88 17.74 70.97 17.74Q70.33 17.74 69.95 17.51Q69.76 17.4 69.63 17.25Q69.47 17.08 69.37 16.86Q69.19 16.45 69.13 15.9Q69.07 15.36 69.07 14.74L69.07 10.77Q69.07 10.33 69.14 10.12Q69.18 10.01 69.25 9.94Q69.32 9.87 69.42 9.83Q69.64 9.75 70.04 9.74L70.04 9.5Q69.77 9.51 69.35 9.52Q68.94 9.53 68.52 9.53Q68.05 9.53 67.64 9.52Q67.24 9.51 66.98 9.5L66.98 9.74Q67.39 9.75 67.6 9.83Q67.71 9.87 67.78 9.94Q67.85 10.01 67.88 10.12Q67.95 10.33 67.95 10.77L67.95 14.54Q67.95 15.36 68.03 15.9Q68.1 16.44 68.3 16.81Q68.5 17.18 68.84 17.51Q69.06 17.72 69.31 17.85Q69.52 17.96 69.76 18.02Q70.28 18.16 70.86 18.16Q71.6 18.16 72.18 17.86Q72.68 17.59 72.97 17.18Q73.01 17.11 73.05 17.05Q73.33 16.59 73.44 15.97Q73.55 15.34 73.55 14.5L73.55 10.89Q73.55 10.45 73.62 10.21Q73.66 10.07 73.75 9.97Q73.82 9.9 73.9 9.86Q74.11 9.75 74.52 9.74ZM82.95 10.32Q82.97 9.92 83.02 9.5Q82.46 9.52 81.76 9.53Q81.06 9.53 80.51 9.53L79.83 9.53Q79.41 9.53 78.93 9.53Q78.45 9.52 77.96 9.52Q77.47 9.51 77.03 9.5L77.03 9.74Q77.43 9.75 77.65 9.83Q77.75 9.87 77.82 9.94Q77.89 10.01 77.93 10.12Q78 10.33 78 10.77L78 16.72Q78 17.15 77.93 17.37Q77.89 17.49 77.81 17.56Q77.75 17.63 77.65 17.66Q77.43 17.73 77.03 17.75L77.03 18Q77.47 17.98 77.96 17.98Q78.45 17.97 78.93 17.97Q79.41 17.96 79.83 17.96L80.51 17.96Q81.11 17.96 81.88 17.97Q82.64 17.97 83.26 18Q83.21 17.54 83.19 17.11Q83.17 16.69 83.17 16.46Q83.17 15.92 83.21 15.6L82.93 15.6Q82.85 16.39 82.67 16.85Q82.55 17.18 82.31 17.38Q82.22 17.46 82.11 17.52Q81.72 17.72 80.96 17.72L80.09 17.72Q79.68 17.72 79.47 17.66Q79.38 17.63 79.31 17.57Q79.23 17.49 79.19 17.37Q79.12 17.15 79.12 16.72L79.12 13.84L79.91 13.84Q80.43 13.84 80.66 14.08Q80.68 14.1 80.7 14.13Q80.89 14.35 80.94 14.68Q81.01 15.04 81.06 15.43L81.33 15.43Q81.29 14.74 81.28 14.38Q81.26 14.02 81.26 13.72Q81.26 13.42 81.26 13.06Q81.25 12.7 81.3 12.02L81.02 12.02Q80.99 12.24 80.95 12.5Q80.93 12.67 80.88 12.84Q80.85 12.93 80.82 13.03Q80.77 13.16 80.69 13.26Q80.61 13.36 80.51 13.44Q80.3 13.6 79.91 13.6L79.12 13.6L79.12 10.77Q79.12 10.33 79.19 10.12Q79.23 10.01 79.3 9.93Q79.37 9.87 79.47 9.84Q79.68 9.77 80.09 9.77L81.08 9.77Q81.72 9.77 82.04 9.95Q82.1 9.98 82.15 10.02Q82.38 10.2 82.49 10.54Q82.62 10.95 82.69 11.66L82.97 11.66Q82.95 11.53 82.94 11.33Q82.93 11.13 82.93 10.91Q82.93 10.71 82.95 10.32ZM100.71 10.38Q100.73 9.96 100.78 9.5Q100.28 9.51 99.68 9.52Q99.08 9.53 98.49 9.53L96.31 9.53Q95.71 9.53 95.12 9.52Q94.52 9.51 94.02 9.5Q94.07 9.96 94.08 10.38Q94.1 10.81 94.1 11.03Q94.1 11.32 94.1 11.58Q94.09 11.83 94.07 12.02L94.34 12.02Q94.43 11.18 94.57 10.69Q94.69 10.3 94.95 10.08Q95.01 10.03 95.08 9.99Q95.45 9.77 96.19 9.77L96.84 9.77L96.84 16.6Q96.84 17.08 96.75 17.32Q96.71 17.42 96.65 17.49Q96.55 17.6 96.4 17.65Q96.13 17.73 95.63 17.75L95.63 18Q95.92 17.97 96.39 17.97Q96.86 17.96 97.4 17.96Q97.9 17.96 98.37 17.97Q98.85 17.97 99.17 18L99.17 17.75Q98.66 17.73 98.4 17.65Q98.24 17.6 98.15 17.49Q98.08 17.42 98.05 17.32Q97.95 17.08 97.95 16.6L97.95 9.77L98.6 9.77Q99.36 9.77 99.72 9.99Q99.78 10.03 99.83 10.07Q100.1 10.29 100.22 10.69Q100.37 11.18 100.45 12.02L100.73 12.02Q100.71 11.83 100.7 11.58Q100.69 11.32 100.69 11.03Q100.69 10.81 100.71 10.38ZM39.33 9.67Q39.65 9.55 40.02 9.55Q40.3 9.55 40.56 9.62Q40.99 9.74 41.36 10.06Q41.96 10.57 42.32 11.51Q42.67 12.44 42.67 13.72Q42.67 14.96 42.35 15.91Q42.03 16.87 41.46 17.41Q41.16 17.69 40.8 17.82Q40.48 17.95 40.1 17.95Q39.86 17.95 39.63 17.89Q39.17 17.78 38.76 17.44Q38.16 16.93 37.8 15.99Q37.45 15.04 37.45 13.77Q37.45 12.52 37.77 11.58Q38.09 10.63 38.66 10.09Q38.97 9.8 39.33 9.67ZM59.87 9.67Q60.2 9.55 60.56 9.55Q60.84 9.55 61.1 9.62Q61.53 9.74 61.91 10.06Q62.51 10.57 62.86 11.51Q63.21 12.44 63.21 13.72Q63.21 14.96 62.89 15.91Q62.58 16.87 62 17.41Q61.7 17.69 61.35 17.82Q61.02 17.95 60.65 17.95Q60.4 17.95 60.17 17.89Q59.71 17.78 59.31 17.44Q58.7 16.93 58.35 15.99Q58 15.04 58 13.77Q58 12.52 58.31 11.58Q58.63 10.63 59.21 10.09Q59.51 9.8 59.87 9.67Z" fill="#555248" fill-opacity="1.000000" fill-rule="evenodd"/>
	<path d="M21.45 8.45C22.3 10.05 22.66 11.78 22.57 13.46C22.41 16.71 20.6 19.8 17.52 21.45C15.73 22.41 13.76 22.74 11.88 22.52C8.87 22.17 6.07 20.4 4.53 17.52C2.03 12.85 3.78 7.03 8.45 4.53C9.56 3.93 10.74 3.58 11.92 3.45C13.65 3.25 15.39 3.54 16.96 4.25C18.81 5.09 20.41 6.52 21.45 8.45Z" fill="#C4C4C4" fill-opacity="0" fill-rule="nonzero"/>
	<path d="M10.92 3.61C11.25 3.54 11.59 3.48 11.92 3.45C13.65 3.25 15.39 3.54 16.96 4.25C18.81 5.09 20.41 6.52 21.45 8.45C22.3 10.05 22.66 11.78 22.57 13.46C22.41 16.71 20.6 19.8 17.52 21.45C15.73 22.41 13.76 22.74 11.88 22.52C11.54 22.48 11.21 22.42 10.88 22.35C8.26 21.76 5.9 20.08 4.53 17.52C2.03 12.85 3.78 7.03 8.45 4.53C9.25 4.1 10.08 3.8 10.92 3.61ZM10.92 4.69Q10.58 4.77 10.24 4.88Q9.47 5.12 8.93 5.41Q8.06 5.87 7.34 6.5Q6.77 6.99 6.3 7.59Q5.81 8.19 5.44 8.87Q5.02 9.64 4.76 10.5Q4.5 11.36 4.42 12.24Q4.35 13.01 4.43 13.78Q4.5 14.54 4.69 15.27Q4.95 16.19 5.41 17.05Q5.75 17.69 6.19 18.26Q6.41 18.53 6.64 18.79Q6.97 19.15 7.33 19.47Q7.75 19.83 8.21 20.14Q8.58 20.39 8.98 20.6Q9.48 20.86 10.02 21.06Q10.45 21.21 10.88 21.32L10.92 4.69ZM12.88 21.59Q13.14 21.59 13.4 21.58Q13.98 21.55 14.55 21.44Q15.06 21.35 15.55 21.2Q16.32 20.95 17.05 20.56Q17.63 20.25 18.14 19.86Q18.71 19.43 19.2 18.9Q20.01 18.02 20.58 16.9Q20.87 16.33 21.08 15.74Q21.15 15.55 21.21 15.35Q21.25 15.19 21.3 15.04Q21.53 14.15 21.58 13.4Q21.61 12.78 21.55 12.17Q21.5 11.65 21.39 11.14Q21.29 10.72 21.16 10.32Q20.93 9.6 20.56 8.93Q20.16 8.17 19.62 7.51Q19.25 7.07 18.83 6.68Q18.37 6.25 17.85 5.9Q17.24 5.47 16.54 5.16Q16.01 4.92 15.46 4.75Q15.22 4.68 14.98 4.62Q14.62 4.56 14.22 4.51Q13.61 4.44 12.96 4.43Q12.94 4.43 12.92 4.43L12.88 21.59Z" fill="url(#paint_linear_0_497_0)" fill-opacity="1.000000" fill-rule="evenodd"/>
</svg>
