<svg width="130.000000" height="34.017090" viewBox="0 0 130 34.0171" fill="none" xmlns="http://www.w3.org/2000/svg" xmlns:xlink="http://www.w3.org/1999/xlink">
	<desc>
			Created with Pixso.
	</desc>
	<defs>
		<linearGradient x1="4.914146" y1="15.337902" x2="31.354029" y2="16.997833" id="paint_linear_0_488_0" gradientUnits="userSpaceOnUse">
			<stop offset="0.288448" stop-color="#FFFFFF"/>
			<stop offset="0.780176" stop-color="#FFFFFF" stop-opacity="0.000000"/>
		</linearGradient>
	</defs>
	<path id="CONQUEST" d="M40.98 17.27Q40.39 17.04 39.55 17.04C38.59 17.04 37.73 17.25 36.98 17.69Q36.55 17.94 36.2 18.27Q35.62 18.8 35.23 19.54Q34.6 20.73 34.6 22.27Q34.6 23.85 35.21 25Q35.57 25.65 36.09 26.13Q36.47 26.48 36.93 26.74Q38.06 27.34 39.54 27.34Q40.35 27.34 40.93 27.12C41.31 26.96 41.71 26.73 42.13 26.43C42.25 26.35 42.35 26.32 42.42 26.32C42.52 26.32 42.59 26.38 42.63 26.51C42.69 26.63 42.73 26.84 42.76 27.14L43.08 27.14C43.04 26.48 43.03 25.3 43.03 23.62L42.7 23.62Q42.59 24.75 42.38 25.34C42.25 25.73 42.01 26.06 41.67 26.32C41.45 26.54 41.19 26.71 40.87 26.84Q40.52 26.96 40.15 26.99Q40.04 27 39.93 27Q39.34 27 38.87 26.76Q38.22 26.43 37.8 25.63Q37.09 24.26 37.09 22.22Q37.09 20.16 37.78 18.79Q38.17 17.98 38.82 17.64Q39.28 17.4 39.88 17.4Q40.18 17.4 40.47 17.47Q40.66 17.51 40.84 17.58C41.15 17.69 41.42 17.86 41.65 18.09C41.99 18.36 42.23 18.67 42.37 19.04C42.51 19.4 42.62 19.93 42.7 20.62L43.03 20.62Q43.03 18.18 43.08 17.23L42.76 17.23C42.7 17.79 42.58 18.07 42.4 18.07C42.32 18.07 42.23 18.03 42.13 17.95C41.76 17.66 41.37 17.43 40.98 17.27ZM53.97 17.64C53.24 17.24 52.37 17.04 51.38 17.04C50.42 17.04 49.56 17.25 48.81 17.69Q48.38 17.94 48.03 18.27Q47.45 18.8 47.06 19.54Q46.43 20.73 46.43 22.27Q46.43 23.85 47.04 25Q47.4 25.65 47.92 26.13Q48.3 26.48 48.77 26.74Q49.89 27.34 51.37 27.34Q52.62 27.34 53.62 26.85Q53.78 26.77 53.93 26.68Q54.4 26.41 54.78 26.05Q55.33 25.53 55.7 24.83C56.12 24.04 56.33 23.13 56.33 22.1Q56.33 20.52 55.71 19.39Q55.36 18.73 54.84 18.25Q54.45 17.89 53.97 17.64ZM80.73 29.23C81.21 28.83 81.54 28.1 81.69 27.05L81.44 26.98C81.22 27.36 80.94 27.64 80.6 27.82C80.27 28 79.81 28.13 79.23 28.19C78.88 28.24 78.53 28.26 78.18 28.26Q77.4 28.26 75.62 28.11L74.48 28.01C74.76 27.93 75.05 27.82 75.35 27.69C75.59 27.59 75.8 27.51 75.98 27.45C76.16 27.4 76.36 27.35 76.58 27.33C77.49 27.29 78.3 27.05 79.01 26.6Q79.41 26.34 79.75 26.02Q80.29 25.48 80.66 24.76C81.05 23.98 81.25 23.09 81.25 22.1Q81.25 20.52 80.63 19.39C80.22 18.62 79.64 18.04 78.89 17.64C78.16 17.24 77.29 17.04 76.3 17.04C75.34 17.04 74.48 17.25 73.73 17.69C72.98 18.13 72.4 18.75 71.98 19.54Q71.35 20.73 71.35 22.27C71.35 23.24 71.52 24.09 71.87 24.82C72.22 25.55 72.72 26.13 73.36 26.56C74.02 26.98 74.78 27.23 75.65 27.31C75.54 27.35 75.43 27.39 75.3 27.44L75 27.56C74.65 27.72 74.31 27.85 73.99 27.94C73.63 27.81 73.28 27.75 72.93 27.75C72.42 27.75 72.16 27.87 72.16 28.12C72.16 28.24 72.22 28.33 72.34 28.39C72.46 28.45 72.62 28.49 72.82 28.49C73 28.49 73.2 28.46 73.41 28.4C73.62 28.36 73.82 28.29 73.99 28.19L74.33 28.29C74.59 28.39 74.82 28.49 75.03 28.57C75.24 28.66 75.44 28.75 75.62 28.82C76.34 29.14 76.94 29.38 77.42 29.54C77.92 29.7 78.42 29.78 78.92 29.78C79.3 29.78 79.64 29.72 79.94 29.62C80.26 29.53 80.52 29.4 80.73 29.23ZM111.32 17.19C111.03 17.1 110.65 17.05 110.16 17.05Q109.31 17.05 108.59 17.33C108.12 17.52 107.73 17.81 107.45 18.2C107.17 18.58 107.03 19.05 107.03 19.61C107.03 20.1 107.13 20.53 107.35 20.9C107.56 21.26 107.84 21.58 108.17 21.85C108.51 22.12 108.96 22.44 109.52 22.8C110.25 23.27 110.78 23.69 111.11 24.06Q111.33 24.3 111.45 24.58Q111.62 24.95 111.62 25.41C111.62 25.91 111.45 26.3 111.13 26.57C110.8 26.84 110.39 26.98 109.88 26.98C109.05 26.98 108.43 26.65 108.03 26.01C107.63 25.36 107.4 24.51 107.33 23.46L107.01 23.46C107.01 25.39 106.99 26.65 106.96 27.24L107.28 27.24C107.31 27.03 107.34 26.87 107.39 26.78C107.44 26.68 107.5 26.63 107.59 26.63C107.7 26.63 107.86 26.69 108.06 26.82C108.35 26.98 108.67 27.11 109.01 27.2C109.36 27.29 109.79 27.34 110.32 27.34C110.96 27.34 111.54 27.24 112.07 27.03C112.6 26.83 113.02 26.52 113.33 26.12Q113.39 26.03 113.45 25.94Q113.79 25.38 113.79 24.61C113.79 24.13 113.68 23.72 113.48 23.36C113.28 23 113.03 22.68 112.71 22.41C112.39 22.14 111.96 21.82 111.41 21.46L110.96 21.15C110.44 20.81 110.05 20.54 109.8 20.34Q109.42 20.03 109.21 19.67C109.07 19.42 109 19.14 109 18.81Q109 18.34 109.22 18.01Q109.3 17.88 109.42 17.78C109.71 17.52 110.08 17.39 110.54 17.39C111.01 17.39 111.41 17.53 111.76 17.82Q111.85 17.89 111.93 17.97Q112.34 18.35 112.57 18.93C112.77 19.38 112.88 19.86 112.92 20.37L113.24 20.37C113.24 18.86 113.26 17.8 113.31 17.18L112.99 17.18C112.96 17.39 112.92 17.55 112.88 17.65C112.83 17.74 112.77 17.79 112.68 17.79Q112.6 17.79 112.47 17.74C112.4 17.7 112.31 17.65 112.21 17.6C111.91 17.42 111.61 17.28 111.32 17.19ZM67.79 17.75C67.94 17.64 68.17 17.56 68.48 17.51L68.48 17.23C68.19 17.26 67.78 17.27 67.26 17.27C66.62 17.27 66.11 17.26 65.75 17.23L65.75 17.51C66.17 17.56 66.47 17.64 66.66 17.76C66.85 17.87 66.97 18.06 67.02 18.32C67.08 18.58 67.11 18.98 67.11 19.53L67.11 23.91L61.69 17.23C61.35 17.26 60.95 17.27 60.49 17.27Q59.72 17.27 59.27 17.23L59.27 17.51C59.58 17.53 59.8 17.57 59.94 17.62C60.09 17.68 60.19 17.79 60.23 17.95C60.29 18.1 60.32 18.36 60.32 18.71L60.32 25.02C60.32 25.49 60.29 25.85 60.23 26.09C60.19 26.34 60.09 26.51 59.94 26.63C59.8 26.74 59.58 26.82 59.27 26.86L59.27 27.14Q59.72 27.1 60.49 27.1C61.13 27.1 61.63 27.12 62 27.14L62 26.86C61.58 26.82 61.27 26.74 61.09 26.63C60.9 26.5 60.78 26.32 60.72 26.07C60.67 25.8 60.64 25.4 60.64 24.85L60.64 19.47L66.72 27.17L67.09 27.16L67.43 27.17L67.43 19.36C67.43 18.88 67.45 18.52 67.5 18.28C67.56 18.04 67.65 17.86 67.79 17.75ZM92.45 17.75C92.6 17.64 92.83 17.56 93.13 17.51L93.13 17.23C92.84 17.26 92.44 17.27 91.92 17.27C91.26 17.27 90.76 17.26 90.4 17.23L90.4 17.51C90.8 17.56 91.1 17.64 91.29 17.76Q91.33 17.79 91.37 17.82Q91.58 17.99 91.66 18.32C91.73 18.58 91.76 18.99 91.76 19.53L91.76 23.22C91.76 24.38 91.57 25.28 91.19 25.91Q91.04 26.15 90.83 26.34Q90.25 26.85 89.21 26.85C88.49 26.85 87.99 26.62 87.7 26.16C87.42 25.7 87.28 24.97 87.28 23.99L87.28 18.71C87.28 18.36 87.31 18.1 87.37 17.95C87.42 17.79 87.52 17.68 87.67 17.62C87.83 17.57 88.08 17.53 88.42 17.51L88.42 17.23C87.9 17.26 87.16 17.27 86.19 17.27Q84.72 17.27 84.01 17.23L84.01 17.51C84.31 17.53 84.54 17.57 84.68 17.62C84.83 17.68 84.92 17.79 84.97 17.95C85.03 18.1 85.06 18.36 85.06 18.71L85.06 23.11C85.06 24.06 85.13 24.81 85.28 25.34Q85.38 25.7 85.58 26.01Q85.8 26.36 86.15 26.64Q87.04 27.34 88.67 27.34C89.36 27.34 89.94 27.23 90.42 27C90.89 26.77 91.26 26.45 91.51 26.04C91.89 25.39 92.08 24.4 92.08 23.07L92.08 19.36Q92.08 18.65 92.15 18.28C92.21 18.04 92.31 17.86 92.45 17.75ZM103.6 27.14C103.53 26.58 103.5 25.87 103.5 25.02Q103.5 24.3 103.54 23.84L103.22 23.84C103.05 24.92 102.76 25.69 102.35 26.15C101.95 26.6 101.42 26.82 100.76 26.82L100.07 26.82Q99.64 26.82 99.44 26.75C99.31 26.7 99.22 26.62 99.17 26.49C99.13 26.35 99.1 26.13 99.1 25.83L99.1 22.3L99.55 22.3C100.49 22.3 101.06 22.92 101.26 24.15L101.58 24.15Q101.5 22.87 101.5 22.16L101.5 21.49C101.5 21 101.51 20.56 101.54 20.17L101.22 20.17Q101.06 20.93 100.67 21.47C100.42 21.84 100.05 22.02 99.55 22.02L99.1 22.02L99.1 18.55C99.1 18.25 99.13 18.03 99.17 17.9C99.22 17.76 99.31 17.67 99.44 17.62Q99.64 17.55 100.07 17.55L100.64 17.55C101.31 17.55 101.82 17.75 102.18 18.16Q102.73 18.76 102.94 20.26L103.26 20.26C103.23 20.03 103.22 19.71 103.22 19.3C103.22 18.7 103.25 18.01 103.32 17.23C102.74 17.26 101.76 17.27 100.39 17.27C98.36 17.27 96.84 17.26 95.83 17.23L95.83 17.51C96.14 17.53 96.36 17.57 96.5 17.62C96.65 17.68 96.75 17.79 96.79 17.95C96.85 18.1 96.88 18.36 96.88 18.71L96.88 25.66Q96.88 26.19 96.79 26.43C96.75 26.59 96.65 26.7 96.5 26.75Q96.29 26.84 95.83 26.86L95.83 27.14C96.84 27.12 98.36 27.1 100.39 27.1C101.89 27.1 102.96 27.12 103.6 27.14ZM125.21 19.61C125.21 18.91 125.24 18.12 125.31 17.23C124.47 17.26 123.03 17.27 121 17.27Q117.94 17.27 116.67 17.23C116.74 18.12 116.77 18.91 116.77 19.61Q116.77 20.27 116.73 20.68L117.05 20.68C117.21 19.89 117.4 19.28 117.62 18.83Q117.96 18.14 118.42 17.85C118.74 17.65 119.12 17.55 119.57 17.55L119.88 17.55L119.88 25.55C119.88 25.94 119.83 26.22 119.75 26.4Q119.71 26.49 119.65 26.56Q119.53 26.7 119.33 26.77C119.13 26.82 118.82 26.85 118.38 26.86L118.38 27.14C119.5 27.12 120.35 27.1 120.94 27.1C121.54 27.1 122.42 27.12 123.6 27.14L123.6 26.86C123.16 26.85 122.84 26.82 122.63 26.77C122.44 26.7 122.3 26.58 122.21 26.4C122.14 26.22 122.1 25.94 122.1 25.55L122.1 17.55L122.42 17.55C123.1 17.55 123.62 17.79 124.01 18.25C124.4 18.72 124.71 19.53 124.93 20.68L125.25 20.68Q125.21 20.27 125.21 19.61ZM49.97 17.92C50.36 17.5 50.81 17.29 51.33 17.29Q51.53 17.29 51.72 17.33Q52.23 17.45 52.67 17.89C53.08 18.29 53.4 18.86 53.64 19.6Q54 20.7 54 22.16Q54 23.6 53.68 24.72C53.47 25.47 53.18 26.05 52.78 26.47C52.39 26.88 51.94 27.09 51.43 27.09C50.93 27.09 50.48 26.89 50.07 26.49C49.67 26.08 49.34 25.51 49.1 24.78Q48.75 23.67 48.75 22.22Q48.75 20.77 49.06 19.65Q49.38 18.53 49.97 17.92ZM74.02 24.78C73.79 24.04 73.67 23.19 73.67 22.22C73.67 21.25 73.77 20.4 73.98 19.65Q74.3 18.53 74.89 17.92C75.28 17.5 75.73 17.29 76.25 17.29C76.74 17.29 77.19 17.49 77.59 17.89C78 18.29 78.32 18.86 78.56 19.6C78.8 20.33 78.92 21.19 78.92 22.16C78.92 23.12 78.81 23.97 78.6 24.72C78.39 25.47 78.1 26.05 77.7 26.47C77.31 26.88 76.86 27.09 76.35 27.09C75.85 27.09 75.4 26.89 74.99 26.49C74.59 26.08 74.26 25.51 74.02 24.78Z" fill="#FFFFFF" fill-opacity="1.000000" fill-rule="evenodd"/>
	<path id="Ellipse" d="M28.06 11.06C29.18 13.15 29.65 15.41 29.54 17.61C29.32 21.86 26.95 25.9 22.93 28.06C20.58 29.32 18 29.76 15.54 29.47C11.6 29 7.94 26.69 5.93 22.93C2.65 16.82 4.95 9.21 11.06 5.93C12.52 5.15 14.05 4.68 15.6 4.51C17.86 4.26 20.14 4.63 22.19 5.56C24.61 6.66 26.71 8.53 28.06 11.06Z" fill="#C4C4C4" fill-opacity="0" fill-rule="nonzero"/>
	<path id="Ellipse" d="M13.6 4.9C14.26 4.72 14.93 4.59 15.6 4.51C17.86 4.26 20.14 4.63 22.19 5.56C24.61 6.66 26.71 8.53 28.06 11.06C29.18 13.15 29.65 15.41 29.54 17.61C29.32 21.86 26.95 25.9 22.93 28.06C20.58 29.32 18 29.76 15.54 29.47C14.86 29.39 14.2 29.25 13.54 29.07C10.39 28.17 7.6 26.04 5.93 22.93C2.65 16.82 4.95 9.21 11.06 5.93C11.88 5.49 12.74 5.15 13.6 4.9ZM12.01 7.69Q10.08 8.72 8.8 10.29Q7.52 11.85 6.89 13.94Q6.26 16.04 6.46 18.05Q6.66 20.06 7.69 21.98Q8.99 24.4 11 25.77Q12.15 26.56 13.55 27.01L13.59 7Q12.78 7.28 12.01 7.69ZM17.59 6.47L17.55 27.55Q18.23 27.51 18.89 27.39Q20.48 27.1 21.98 26.3L21.98 26.3Q24.6 24.89 25.99 22.7Q26.93 21.22 27.31 19.38Q27.48 18.49 27.54 17.5Q27.61 16.11 27.33 14.8Q27.02 13.36 26.3 12.01Q25.44 10.41 24.18 9.24Q22.96 8.11 21.36 7.38Q19.98 6.76 18.55 6.54Q18.42 6.52 18.28 6.51Q17.95 6.48 17.59 6.47Z" fill="url(#paint_linear_0_488_0)" fill-opacity="1.000000" fill-rule="evenodd"/>
</svg>
