<svg width="16.000000" height="16.000122" viewBox="0 0 16 16.0001" fill="none" xmlns="http://www.w3.org/2000/svg" xmlns:xlink="http://www.w3.org/1999/xlink">
	<desc>
			Created with Pixso.
	</desc>
	<defs/>
	<path
		d="M15.8 14.86L11.95 11.01C12.91 9.85 13.48 8.36 13.48 6.74C13.48 3.02 10.46 0 6.74 0C3.01 0 0 3.02 0 6.74C0 10.46 3.01 13.48 6.74 13.48C8.36 13.48 9.85 12.91 11.01 11.96L14.86 15.8C15.12 16.06 15.54 16.06 15.8 15.8C16.06 15.54 16.06 15.12 15.8 14.86ZM6.74 12.14C3.76 12.14 1.33 9.72 1.33 6.74C1.33 3.76 3.76 1.33 6.74 1.33C9.72 1.33 12.14 3.76 12.14 6.74C12.14 9.72 9.72 12.14 6.74 12.14Z" 
		fill="#1B1A17" 
		fill-opacity="1.000000" 
		fill-rule="nonzero"/>
</svg>
