<svg width="22.000000" height="17.081543" viewBox="0 0 22 17.0815" fill="none" xmlns="http://www.w3.org/2000/svg" xmlns:xlink="http://www.w3.org/1999/xlink">
	<desc>
			Created with Pixso.
	</desc>
	<defs/>
	<path d="M22 2.02C21.19 2.36 20.32 2.59 19.4 2.7C20.33 2.16 21.05 1.32 21.39 0.31C20.52 0.8 19.55 1.16 18.52 1.36C17.7 0.52 16.53 0 15.23 0C12.73 0 10.71 1.93 10.71 4.31C10.71 4.65 10.75 4.97 10.83 5.29C7.08 5.11 3.75 3.39 1.53 0.78C1.14 1.42 0.92 2.16 0.92 2.95C0.92 4.45 1.71 5.77 2.92 6.54C2.18 6.52 1.49 6.33 0.88 6C0.88 6.02 0.88 6.04 0.88 6.06C0.88 8.15 2.44 9.89 4.5 10.28C4.12 10.38 3.72 10.44 3.31 10.44C3.02 10.44 2.74 10.41 2.46 10.36C3.04 12.07 4.7 13.32 6.68 13.35C5.13 14.51 3.19 15.2 1.07 15.2C0.71 15.2 0.35 15.18 0 15.14C1.99 16.36 4.37 17.08 6.91 17.08C15.22 17.08 19.75 10.51 19.75 4.81C19.75 4.62 19.75 4.43 19.74 4.25C20.62 3.64 21.39 2.88 21.99 2.02L22 2.02Z" fill="#5C5C50" fill-opacity="1.000000" fill-rule="nonzero"/>
</svg>
